<svg version="1.1" id="Layer_1" xmlns="http://www.w3.org/2000/svg" xmlns:xlink="http://www.w3.org/1999/xlink" x="0px" y="0px"
	 width="100%" viewBox="0 0 688 688" enable-background="new 0 0 688 688" xml:space="preserve">
<path fill="#000000" opacity="1.000000" stroke="none" 
	d="
M324.143555,647.160828 
	C308.347443,652.464355 292.915558,657.610718 277.503845,662.816895 
	C271.701630,664.776917 266.007538,667.076599 260.154144,668.860535 
	C252.796295,671.102966 246.706177,667.767639 240.546295,664.157288 
	C198.492218,639.508850 156.404526,614.916748 114.204704,590.519104 
	C106.404297,586.009338 102.558083,580.544373 102.721748,570.937988 
	C103.272415,538.617310 102.846451,506.280884 102.996193,473.951447 
	C103.015678,469.744476 101.673119,467.422699 97.956696,465.337219 
	C75.756401,452.879303 53.761734,440.055420 31.595129,427.536621 
	C25.415468,424.046600 22.384619,419.851929 22.455744,412.104889 
	C22.865749,367.446320 22.821980,322.780823 22.480551,278.121124 
	C22.427816,271.223511 25.027575,267.164368 30.521162,264.039520 
	C49.457870,253.267883 68.374809,242.461502 87.294472,231.659943 
	C89.462097,230.422424 91.458611,228.700012 93.776352,227.944092 
	C101.864220,225.306305 103.242592,219.743729 103.119240,211.815735 
	C102.637093,180.826157 103.111153,149.822632 102.771973,118.829308 
	C102.682159,110.622490 105.769272,105.460236 112.727066,101.454765 
	C145.325409,82.688515 177.774811,63.663589 210.286819,44.747257 
	C222.509949,37.635529 234.813522,30.659994 246.966660,23.431105 
	C251.406128,20.790428 255.963409,21.042297 260.374939,22.475815 
	C277.710999,28.109131 294.948914,34.044159 312.231964,39.841160 
	C328.746033,45.380226 345.338226,50.697376 361.750153,56.523182 
	C366.692444,58.277569 369.520844,62.091434 369.446991,68.095436 
	C369.188843,89.090202 369.339844,110.090111 369.357117,131.088058 
	C369.361786,136.772171 369.896912,137.202789 375.335663,136.223099 
	C375.827026,136.134598 376.327728,135.860764 376.795929,135.915237 
	C388.497467,137.277084 392.768860,130.265076 395.571472,120.380974 
	C398.471375,110.153824 402.514740,100.248489 406.115051,90.222908 
	C411.944366,73.990425 428.747467,61.778946 445.950989,61.713688 
	C481.113647,61.580303 516.306396,60.796814 551.430908,61.962181 
	C578.415466,62.857479 598.707764,76.789406 609.971008,101.437630 
	C627.962830,140.810547 644.914734,180.658096 662.374268,220.275024 
	C672.592468,243.460632 665.026184,266.998962 643.057617,279.448242 
	C640.552734,280.867767 639.608887,282.578064 639.307068,285.317993 
	C635.266357,322.000610 621.712341,354.943573 596.600159,381.867371 
	C558.984070,422.197174 518.982544,460.235809 480.088165,499.341034 
	C463.988403,515.528076 447.813141,531.640015 431.674225,547.788086 
	C429.784119,549.679199 427.943207,551.711914 425.141998,552.152893 
	C420.553497,552.875122 416.360687,552.145752 413.867920,547.721436 
	C411.522308,543.558289 411.853271,539.368958 414.815643,535.580322 
	C416.142639,533.883179 417.757568,532.405273 419.288300,530.874329 
	C470.426239,479.731628 521.531921,428.556610 572.729797,377.473907 
	C596.174805,354.081604 611.190918,326.272949 617.385986,293.728638 
	C617.724304,291.951294 617.770447,290.118378 618.047119,287.374268 
	C609.146729,289.734009 600.719727,291.913330 592.323242,294.204651 
	C566.923523,301.135956 541.632080,286.328186 536.274902,259.989960 
	C534.561279,251.565140 534.457642,242.800003 533.794006,234.176971 
	C532.108948,212.281082 530.500061,190.379227 528.923096,168.475266 
	C528.672180,164.990067 528.621338,161.478928 528.696777,157.984497 
	C528.808777,152.789505 532.393250,148.760559 537.398010,147.933884 
	C541.966003,147.179352 546.779907,150.506500 548.393494,155.434708 
	C550.084717,160.599854 549.477295,166.012833 549.980774,171.284729 
	C551.466675,186.843628 552.202393,202.472900 553.338562,218.066864 
	C554.184448,229.675568 554.937012,241.300430 556.197327,252.867294 
	C557.964111,269.082397 571.098633,278.228485 586.834167,274.281677 
	C600.703613,270.802887 614.518188,267.088593 628.284302,263.219482 
	C643.098755,259.055695 650.219849,244.079193 644.045410,229.971954 
	C626.484497,189.849716 609.105225,149.642639 590.990906,109.770424 
	C583.113770,92.431747 568.516846,82.770302 549.463501,82.406731 
	C515.812378,81.764587 482.140106,82.169144 448.476959,82.252853 
	C437.068817,82.281212 428.830261,88.221115 424.943573,98.943840 
	C419.385223,114.278374 413.803101,129.606796 408.506348,145.032318 
	C406.576172,150.653503 402.874573,153.420990 397.259155,154.176804 
	C374.525116,157.236664 351.796570,160.338242 329.052490,163.321548 
	C325.293365,163.814636 323.870911,165.035873 324.885559,169.177979 
	C328.324615,183.217209 331.212708,197.391418 334.653046,211.430298 
	C339.066895,229.441788 352.375946,240.728256 371.166626,242.641052 
	C401.600403,245.739029 432.044891,248.731537 462.484985,251.767349 
	C469.108795,252.427948 473.062378,255.010788 474.203003,259.430603 
	C476.000458,266.395782 471.147736,272.631073 463.870239,272.550354 
	C460.581146,272.513916 457.295410,272.177124 454.024506,271.977570 
	C452.622498,274.881317 454.084869,277.443207 454.175659,280.029358 
	C454.633820,293.079071 453.444244,305.965424 450.274475,318.633423 
	C448.706116,324.901306 443.190765,328.420380 437.579254,327.032990 
	C432.027100,325.660248 428.962677,320.081116 430.351227,313.705536 
	C433.237823,300.451752 434.478210,287.125244 432.781372,273.575226 
	C432.430420,270.772583 431.646088,269.528870 428.652588,269.235809 
	C410.282959,267.437500 391.932007,265.448395 373.576019,263.511414 
	C371.411560,263.283020 369.399353,263.281677 369.394196,266.242279 
	C369.373688,278.027802 369.385773,289.813416 369.385773,302.429443 
	C376.274536,300.158417 380.756409,303.748993 385.268768,307.258057 
	C423.884979,337.288086 447.653137,376.751373 459.240265,423.905060 
	C461.704712,433.933960 463.047577,444.161713 463.272186,454.493347 
	C463.439392,462.184967 459.199554,467.233887 452.941986,467.222046 
	C446.836914,467.210510 443.012726,462.395020 442.642822,454.928345 
	C440.990753,421.577484 429.300842,391.698120 410.896637,364.201385 
	C403.450958,353.077179 394.719879,343.025604 384.953064,333.878815 
	C383.771454,332.772217 382.790985,331.306366 381.011078,331.039093 
	C379.548157,331.459961 379.562531,332.707611 379.289612,333.823730 
	C375.971710,347.391327 372.635223,360.954315 369.306030,374.519135 
	C367.390778,382.322876 365.065979,384.537598 357.214752,385.412476 
	C347.631927,386.480347 338.032562,387.409058 328.430878,388.295166 
	C321.174286,388.964844 315.753998,392.131226 313.110565,399.178589 
	C311.533203,403.383759 310.059753,407.629974 308.631256,411.888489 
	C305.531586,421.129150 300.408997,428.985687 292.661865,434.962677 
	C290.653137,436.512421 290.146423,438.264557 290.407166,440.589478 
	C293.112305,464.705963 307.177368,477.672394 331.806702,478.616852 
	C335.957855,478.776001 340.109283,478.826355 344.252319,477.999146 
	C349.430237,476.965210 353.751404,478.584839 357.067474,482.811890 
	C379.993805,512.036621 385.767487,544.004700 372.162720,578.902771 
	C370.241608,583.830566 369.174286,588.626892 369.289154,593.895142 
	C369.499756,603.556274 369.365112,613.225403 369.341797,622.891052 
	C369.326843,629.100647 366.759705,632.896118 360.882294,634.897522 
	C348.785980,639.016785 336.640808,642.992615 324.143555,647.160828 
M131.920364,119.437790 
	C128.848129,120.521080 127.868423,122.475113 127.888618,125.902390 
	C128.070282,156.729858 128.057907,187.559006 127.927094,218.386917 
	C127.914223,221.418610 128.527191,223.258057 131.288239,224.811676 
	C151.142807,235.983841 170.972000,247.205048 190.649994,258.683685 
	C194.493057,260.925385 197.228363,260.798065 200.832916,258.299744 
	C213.557312,249.480392 225.994263,240.048813 239.526398,232.654129 
	C250.584518,226.611420 254.094894,219.058105 253.318405,206.815826 
	C252.213058,189.388992 253.129501,171.838287 253.006836,154.341736 
	C252.975540,149.877533 254.689148,147.892258 259.182251,148.057724 
	C263.175598,148.204758 267.180328,148.007797 271.178864,148.057190 
	C277.520630,148.135483 278.102081,148.674484 278.110199,154.882401 
	C278.141144,178.545639 277.898590,202.212357 278.256134,225.870255 
	C278.370331,233.428131 275.556641,238.440369 269.435272,242.448227 
	C250.772186,254.667496 232.291641,267.165619 213.627640,279.383453 
	C210.175491,281.643280 208.759491,284.184875 208.864166,288.363129 
	C209.135361,299.187714 209.329941,310.045471 208.744324,320.846039 
	C208.481735,325.688873 210.127945,327.968475 214.034348,330.226868 
	C228.433472,338.551544 242.597366,347.282074 256.940063,355.706146 
	C260.395020,357.735382 260.624786,359.964447 258.661743,363.073578 
	C256.176453,367.009979 253.617172,370.919617 251.447449,375.029602 
	C249.466980,378.781097 247.611435,379.543091 243.669388,377.091248 
	C229.407150,368.220428 214.849808,359.825470 200.504684,351.085449 
	C197.416733,349.204010 195.035522,349.181793 191.884720,351.117432 
	C177.577484,359.907013 163.047073,368.333099 148.732269,377.110626 
	C145.497162,379.094360 143.483780,379.316833 141.585999,375.643677 
	C139.680603,371.955780 137.424255,368.447083 135.277634,364.886414 
	C131.521774,358.656525 131.667282,358.054962 137.723099,354.442108 
	C152.016159,345.914917 166.265106,337.313019 180.613495,328.880219 
	C182.951019,327.506439 183.849411,325.875000 183.832306,323.264771 
	C183.753769,311.266998 183.720032,299.267853 183.827194,287.270599 
	C183.852676,284.418793 182.868423,282.728333 180.351791,281.311707 
	C159.612961,269.637787 138.920822,257.880035 118.291237,246.014313 
	C116.056229,244.728775 114.540459,244.905167 112.403839,246.132172 
	C91.776428,257.978180 71.100571,269.740570 50.371822,281.408325 
	C47.784393,282.864746 47.050278,284.729645 47.092350,287.493103 
	C47.211571,295.323547 47.142963,303.156830 47.146751,310.989014 
	C47.148640,314.889374 47.147083,318.789764 47.147083,323.489075 
	C49.887833,322.090729 51.671429,321.268921 53.371101,320.299896 
	C70.863815,310.326996 88.366600,300.371216 105.802681,290.300049 
	C108.721840,288.613922 110.610641,288.781647 112.242027,291.921509 
	C114.157555,295.608185 116.355858,299.148102 118.436844,302.748596 
	C122.496536,309.772614 122.361557,309.857697 115.143204,313.953491 
	C93.590134,326.182831 72.115990,338.551270 50.560665,350.776611 
	C48.288456,352.065308 47.089909,353.498352 47.104885,356.227661 
	C47.192650,372.224854 47.183258,388.222900 47.123703,404.220306 
	C47.114594,406.666931 47.980030,408.217133 50.136028,409.439545 
	C70.247581,420.842499 90.357590,432.249786 110.356926,443.847443 
	C113.958618,445.936096 116.549782,445.385925 119.819145,443.166565 
	C137.992355,430.830048 156.352020,418.768372 174.541702,406.455780 
	C177.729370,404.298035 179.485794,404.858063 181.335007,407.977753 
	C183.454544,411.553528 185.933426,414.916382 188.258942,418.369843 
	C192.450958,424.595123 192.317215,425.002838 185.992615,429.179962 
	C168.075714,441.013397 150.228165,452.952423 132.260712,464.708282 
	C129.126526,466.758972 127.965843,469.085480 127.975441,472.876709 
	C128.053879,503.869781 127.957588,534.863892 127.730988,565.856262 
	C127.709602,568.781921 129.069717,570.103455 131.151978,571.314453 
	C151.144211,582.942139 171.176727,594.501282 191.100540,606.244934 
	C194.312927,608.138367 196.787445,607.864624 199.806747,605.961487 
	C226.137161,589.364502 252.560623,572.915100 278.880310,556.301331 
	C281.901825,554.393982 283.652069,554.928406 285.364349,557.791748 
	C287.925690,562.074768 290.602325,566.290894 293.310883,570.483154 
	C295.403137,573.721558 295.182617,575.961304 291.539246,578.187439 
	C274.513184,588.590759 257.630402,599.228699 240.703934,609.794861 
	C234.145462,613.888977 227.606918,618.015076 221.220352,622.025513 
	C221.979034,624.819397 223.910767,625.374084 225.411713,626.272888 
	C231.971603,630.201599 239.002350,633.476379 245.095932,638.016846 
	C252.229095,643.331970 259.060211,643.143921 266.977203,640.367493 
	C291.373535,631.811951 315.874634,623.546265 340.445160,615.504517 
	C344.556183,614.159058 345.887360,612.411377 345.867249,608.185547 
	C345.708771,574.857727 345.780212,541.528809 345.765991,508.200226 
	C345.762177,499.254150 345.715515,499.346008 336.828430,499.285156 
	C316.313477,499.144653 297.477661,494.609039 283.428986,478.138062 
	C281.611084,476.006714 280.008331,476.217529 277.829315,477.557007 
	C270.745514,481.911469 263.549408,486.082825 256.418243,490.360779 
	C235.729706,502.771698 215.026291,515.158264 194.397812,527.668274 
	C191.398636,529.487061 189.648010,529.030762 187.982880,526.038086 
	C185.638260,521.824158 183.160034,517.670288 180.491974,513.654846 
	C178.156601,510.140106 178.512711,507.839081 182.344986,505.586243 
	C196.110641,497.493927 209.709000,489.117676 223.416641,480.925842 
	C237.980301,472.222443 252.569092,463.560089 267.211426,454.990051 
	C270.326752,453.166656 271.634827,451.083374 270.760193,447.336426 
	C269.706055,442.820221 269.260254,438.161499 268.562286,433.562744 
	C267.736206,428.119690 269.750092,424.069183 274.707092,421.682953 
	C281.886230,418.226990 286.469696,412.584839 289.060272,405.180359 
	C290.488770,401.097412 291.889679,397.004822 293.301239,392.915955 
	C296.175537,384.589874 301.093658,377.785889 308.791748,373.393097 
	C312.082947,371.515015 312.923004,369.101593 312.696289,365.619904 
	C311.896393,353.337006 311.406494,341.032593 310.498413,328.758545 
	C309.694397,317.890137 314.894012,313.120697 325.483185,315.234802 
	C332.154327,316.566681 338.502533,318.970825 344.646240,321.027740 
	C345.995453,319.972595 345.755402,318.905670 345.756104,317.950012 
	C345.770081,298.786102 345.710175,279.621918 345.815399,260.458588 
	C345.831543,257.516632 344.627258,255.865112 342.185059,254.570999 
	C335.626068,251.095367 329.799896,246.490509 325.736969,240.356018 
	C320.388306,232.280167 316.615814,223.318512 314.329102,213.861526 
	C310.032288,196.091492 305.829590,178.297546 301.757904,160.474655 
	C299.496124,150.574295 303.151337,145.942688 313.397614,144.677277 
	C322.626770,143.537460 331.800140,141.924530 341.040924,140.910889 
	C344.671356,140.512650 345.828979,139.161621 345.803070,135.600143 
	C345.672089,117.603691 345.700165,99.605583 345.783417,81.608566 
	C345.797821,78.489418 344.783936,76.985870 341.613892,75.938354 
	C314.633209,67.022705 287.727325,57.880451 260.805695,48.786419 
	C257.152252,47.552296 253.993820,47.729984 250.441711,49.910103 
	C238.527161,57.222721 226.425476,64.243584 214.217636,71.057640 
	C210.193314,73.303894 208.803055,76.043175 208.831436,80.601181 
	C209.024368,111.595627 208.953629,142.591721 208.966125,173.587280 
	C208.966873,175.420258 208.896927,177.254929 208.954086,179.085861 
	C209.069382,182.778564 207.620621,184.632370 203.633514,184.433624 
	C199.312576,184.218246 194.969208,184.339096 190.639053,184.448959 
	C184.120636,184.614319 183.846252,184.441040 183.841080,177.917435 
	C183.819138,150.254852 183.834427,122.592216 183.793900,94.929672 
	C183.791580,93.347771 184.391113,91.606392 182.636597,89.677696 
	C165.996063,99.456398 149.277786,109.280785 131.920364,119.437790 
M332.237244,346.699615 
	C332.335205,350.011200 332.204224,353.348541 332.573212,356.629639 
	C333.775330,367.318176 333.833069,367.200623 344.597137,365.973633 
	C347.910217,365.596008 350.926819,365.584137 351.280060,361.200317 
	C351.525757,358.151123 353.994720,355.068176 352.003143,352.092804 
	C347.219818,344.946838 340.084930,341.261017 331.701599,338.533051 
	C331.914185,341.530762 332.065369,343.662811 332.237244,346.699615 
z"/>
<path fill="#000000" opacity="1.000000" stroke="none" 
	d="
M328.630981,419.234070 
	C327.957611,409.520996 333.082245,402.927521 341.676453,401.993103 
	C348.719086,401.227386 355.937286,406.806976 357.207031,413.997986 
	C358.563049,421.677490 353.670135,428.995026 345.888641,430.925049 
	C338.407135,432.780670 331.376068,428.162048 328.630981,419.234070 
z"/>
<path fill="#000000" opacity="1.000000" stroke="none" 
	d="
M453.017761,137.345886 
	C457.188538,128.438110 464.713165,125.193230 472.629181,128.567963 
	C479.959381,131.692932 483.299988,139.743027 480.338470,147.145416 
	C477.742249,153.634583 471.061493,157.388382 464.331207,156.139572 
	C457.247681,154.825211 452.395416,148.937881 452.474213,141.667801 
	C452.488556,140.348953 452.754669,139.032867 453.017761,137.345886 
z"/>
</svg>