<svg version="1.1" id="Layer_1" xmlns="http://www.w3.org/2000/svg" xmlns:xlink="http://www.w3.org/1999/xlink" x="0px" y="0px"
	 width="100%" viewBox="0 0 688 688" enable-background="new 0 0 688 688" xml:space="preserve">
<path fill="#010101" opacity="1.000000" stroke="none" 
	d="
M1.000000,246.000000 
	C1.000000,164.000000 1.000000,82.500000 1.000000,1.000000 
	C230.333328,1.000000 459.666656,1.000000 689.000000,1.000000 
	C689.000000,230.333328 689.000000,459.666656 689.000000,689.000000 
	C459.666656,689.000000 230.333328,689.000000 1.000000,689.000000 
	C1.000000,541.500000 1.000000,394.000000 1.000000,246.000000 
M103.867355,533.500000 
	C103.866997,546.823914 104.125557,560.154846 103.761627,573.468811 
	C103.567451,580.572571 106.616539,584.903442 112.510086,588.324951 
	C157.420563,614.397766 202.207413,640.684082 247.202240,666.609802 
	C250.415237,668.461182 255.179657,669.050781 258.854706,668.335754 
	C264.447174,667.247681 269.656281,664.320496 275.135040,662.494995 
	C303.625946,653.001953 332.155609,643.625549 360.659393,634.171082 
	C366.309143,632.297058 368.928772,628.633179 368.967255,622.554504 
	C369.032684,612.222717 368.768768,601.882996 369.105713,591.561707 
	C369.236877,587.542847 370.065796,583.349670 371.520050,579.601868 
	C385.063690,544.696960 379.751984,512.764648 356.875366,483.449036 
	C353.606506,479.260132 349.658325,477.812500 344.206818,478.515961 
	C332.496216,480.027130 320.935272,479.126099 310.068329,473.888580 
	C297.832977,467.991608 288.184387,451.033295 289.732574,437.964966 
	C289.859985,436.889557 290.946472,435.705750 291.899506,434.985107 
	C299.742584,429.054535 304.760559,421.170044 308.017944,412.045105 
	C309.582275,407.662994 310.912018,403.191589 312.615479,398.865967 
	C315.232910,392.219299 320.229370,388.607269 327.373901,387.933777 
	C336.815704,387.043762 346.251129,386.087067 355.690277,385.168671 
	C364.869965,384.275543 366.729797,382.694733 368.898621,373.867889 
	C372.546082,359.023193 376.188141,344.177155 379.907990,329.024048 
	C380.818420,329.646332 381.405060,329.937012 381.853241,330.370758 
	C386.161163,334.540161 390.740570,338.474274 394.689850,342.961884 
	C423.351593,375.530548 441.141815,412.780487 443.179779,456.726868 
	C443.433594,462.199951 446.886566,466.025482 451.921356,466.648285 
	C458.537292,467.466675 463.437622,461.898834 462.779144,453.771790 
	C457.858063,393.034821 431.069489,344.067383 383.299438,306.413635 
	C379.086914,303.093201 374.727661,300.846130 369.331573,302.995789 
	C369.331573,289.396759 369.331573,276.160645 369.331573,262.722229 
	C390.669861,264.882202 411.652313,267.006165 432.654877,269.132172 
	C434.988190,284.377930 434.252350,299.040131 430.895233,313.624451 
	C429.352570,320.326355 432.312500,325.381927 438.230316,326.616302 
	C443.762695,327.770294 448.586182,324.376892 449.910095,317.773102 
	C451.280243,310.938385 452.615967,304.027313 453.050690,297.092163 
	C453.587372,288.530579 453.178986,279.909729 453.178986,271.247650 
	C457.122131,271.574860 460.758026,272.082184 464.399902,272.129547 
	C469.600555,272.197205 473.717590,268.283844 474.104858,263.288422 
	C474.508118,258.087067 471.328949,253.881668 466.110565,252.927307 
	C463.659424,252.479019 461.162048,252.265778 458.678802,252.013184 
	C429.369080,249.031723 400.021729,246.375626 370.760803,242.975571 
	C352.726990,240.880081 339.495728,231.680573 334.708771,213.336761 
	C330.476990,197.120377 327.042175,180.696045 323.148193,163.900757 
	C325.233185,163.551773 326.989227,163.212677 328.758362,162.968567 
	C351.512482,159.828659 374.258728,156.628265 397.030609,153.622498 
	C403.025726,152.831161 406.392822,149.893997 408.339325,144.091339 
	C413.253174,129.442520 418.689331,114.969193 423.891266,100.416626 
	C428.518860,87.470695 436.431854,81.634796 450.021362,81.605377 
	C482.684387,81.534676 515.355286,81.155014 548.007996,81.739090 
	C568.356201,82.103058 583.634827,91.971512 592.044006,110.781517 
	C609.669006,150.206314 626.900818,189.806870 644.313110,229.326859 
	C650.859253,244.184402 643.573669,259.622101 627.857910,263.887024 
	C614.701050,267.457520 601.500671,270.867493 588.329468,274.385376 
	C570.728271,279.086517 556.842896,269.635345 555.304199,251.457550 
	C553.648010,231.892578 552.435425,212.290237 551.001282,192.706238 
	C550.138550,180.924469 549.375183,169.132172 548.262695,157.373383 
	C547.747620,151.929123 543.569702,148.420288 538.608093,148.423248 
	C534.087891,148.425949 529.677856,151.992920 529.084778,156.402100 
	C528.821655,158.357803 529.002686,160.393539 529.147827,162.380829 
	C531.426147,193.579971 533.636719,224.784500 536.066895,255.971909 
	C537.480347,274.111023 551.586182,289.710846 569.280701,294.113861 
	C580.017456,296.785553 590.036804,294.381104 600.177856,291.580322 
	C606.308228,289.887207 612.470459,288.309540 619.087097,286.555786 
	C613.897888,321.000092 600.099304,350.432129 576.163208,374.562622 
	C523.937927,427.211945 471.351379,479.502777 418.921661,531.949280 
	C417.392731,533.478699 415.741180,534.957825 414.540009,536.727356 
	C412.055573,540.387390 412.058868,544.314453 414.551605,547.954895 
	C417.092499,551.665771 420.972198,552.969604 425.094421,551.638733 
	C427.468048,550.872314 429.626617,548.923706 431.464447,547.089111 
	C484.065826,494.578674 536.731445,442.131683 589.124817,389.414154 
	C618.066345,360.293549 634.386597,324.963226 639.131409,284.199097 
	C639.332397,282.472046 640.795959,280.241302 642.309692,279.415619 
	C663.871216,267.654083 672.114197,243.950790 662.209351,221.342163 
	C644.746704,181.482269 627.647400,141.455444 609.577637,101.872093 
	C598.150818,76.840767 577.500854,63.098568 550.154968,62.248653 
	C515.858459,61.182705 481.502228,61.802383 447.174622,62.068447 
	C428.244293,62.215179 412.257965,74.300858 405.963593,92.153412 
	C401.378204,105.158684 396.731842,118.142906 392.003174,131.096542 
	C391.496887,132.483521 390.417847,134.506134 389.332214,134.698669 
	C382.708405,135.873413 376.005859,136.604233 368.994263,137.527267 
	C368.994263,135.293777 368.994354,133.643204 368.994293,131.992645 
	C368.993439,110.994904 369.017365,89.997108 368.977417,68.999443 
	C368.964294,62.099838 366.312561,58.741119 359.688904,56.649799 
	C356.210266,55.551464 352.792633,54.261555 349.330933,53.107761 
	C332.173737,47.389240 314.988068,41.754940 297.857697,35.957382 
	C284.845734,31.553658 271.984680,26.680069 258.865784,22.633896 
	C255.781509,21.682632 251.318604,22.164793 248.520218,23.776442 
	C203.089447,49.940941 157.848679,76.435066 112.493591,102.731583 
	C106.595047,106.151512 103.709404,110.510269 103.759895,117.597534 
	C103.999695,151.258881 103.823715,184.923019 103.939026,218.585693 
	C103.950829,222.030945 102.867332,223.933533 99.805389,225.656784 
	C76.819275,238.593140 53.952568,251.741684 31.049154,264.824982 
	C25.642561,267.913452 22.807491,271.981659 22.849466,278.801361 
	C23.123325,323.294891 23.127586,367.791840 22.845495,412.285248 
	C22.802082,419.132843 25.676979,423.159302 31.078316,426.244598 
	C53.983070,439.327972 76.850342,452.477905 99.837227,465.415344 
	C102.909767,467.144623 103.964432,469.074493 103.939819,472.506927 
	C103.796410,492.503784 103.868240,512.502136 103.867355,533.500000 
M338.655640,430.070801 
	C345.622375,431.627441 351.359924,429.536346 354.748260,424.205719 
	C357.930389,419.199524 357.718658,413.015930 354.203430,408.295044 
	C350.629578,403.495392 344.366364,401.435516 338.666504,403.185150 
	C333.317261,404.827179 329.357300,409.641052 328.922272,415.265472 
	C328.380554,422.269958 331.650452,427.014099 338.655640,430.070801 
M476.208588,131.207565 
	C475.383240,130.648270 474.605774,129.995422 473.724762,129.544998 
	C468.340088,126.792023 463.064972,127.055542 458.265625,130.737534 
	C453.611145,134.308426 451.911774,139.312271 453.169189,144.952271 
	C454.482239,150.842148 458.484100,154.411942 464.364685,155.725418 
	C469.695526,156.916107 476.051117,153.993866 478.935486,149.165970 
	C482.311768,143.514679 481.604370,137.851440 476.208588,131.207565 
z"/>
<path fill="#F9F9F9" opacity="1.000000" stroke="none" 
	d="
M103.867355,533.000000 
	C103.868240,512.502136 103.796410,492.503784 103.939819,472.506927 
	C103.964432,469.074493 102.909767,467.144623 99.837227,465.415344 
	C76.850342,452.477905 53.983070,439.327972 31.078316,426.244598 
	C25.676979,423.159302 22.802082,419.132843 22.845495,412.285248 
	C23.127586,367.791840 23.123325,323.294891 22.849466,278.801361 
	C22.807491,271.981659 25.642561,267.913452 31.049154,264.824982 
	C53.952568,251.741684 76.819275,238.593140 99.805389,225.656784 
	C102.867332,223.933533 103.950829,222.030945 103.939026,218.585693 
	C103.823715,184.923019 103.999695,151.258881 103.759895,117.597534 
	C103.709404,110.510269 106.595047,106.151512 112.493591,102.731583 
	C157.848679,76.435066 203.089447,49.940941 248.520218,23.776442 
	C251.318604,22.164793 255.781509,21.682632 258.865784,22.633896 
	C271.984680,26.680069 284.845734,31.553658 297.857697,35.957382 
	C314.988068,41.754940 332.173737,47.389240 349.330933,53.107761 
	C352.792633,54.261555 356.210266,55.551464 359.688904,56.649799 
	C366.312561,58.741119 368.964294,62.099838 368.977417,68.999443 
	C369.017365,89.997108 368.993439,110.994904 368.994293,131.992645 
	C368.994354,133.643204 368.994263,135.293777 368.994263,137.527267 
	C376.005859,136.604233 382.708405,135.873413 389.332214,134.698669 
	C390.417847,134.506134 391.496887,132.483521 392.003174,131.096542 
	C396.731842,118.142906 401.378204,105.158684 405.963593,92.153412 
	C412.257965,74.300858 428.244293,62.215179 447.174622,62.068447 
	C481.502228,61.802383 515.858459,61.182705 550.154968,62.248653 
	C577.500854,63.098568 598.150818,76.840767 609.577637,101.872093 
	C627.647400,141.455444 644.746704,181.482269 662.209351,221.342163 
	C672.114197,243.950790 663.871216,267.654083 642.309692,279.415619 
	C640.795959,280.241302 639.332397,282.472046 639.131409,284.199097 
	C634.386597,324.963226 618.066345,360.293549 589.124817,389.414154 
	C536.731445,442.131683 484.065826,494.578674 431.464447,547.089111 
	C429.626617,548.923706 427.468048,550.872314 425.094421,551.638733 
	C420.972198,552.969604 417.092499,551.665771 414.551605,547.954895 
	C412.058868,544.314453 412.055573,540.387390 414.540009,536.727356 
	C415.741180,534.957825 417.392731,533.478699 418.921661,531.949280 
	C471.351379,479.502777 523.937927,427.211945 576.163208,374.562622 
	C600.099304,350.432129 613.897888,321.000092 619.087097,286.555786 
	C612.470459,288.309540 606.308228,289.887207 600.177856,291.580322 
	C590.036804,294.381104 580.017456,296.785553 569.280701,294.113861 
	C551.586182,289.710846 537.480347,274.111023 536.066895,255.971909 
	C533.636719,224.784500 531.426147,193.579971 529.147827,162.380829 
	C529.002686,160.393539 528.821655,158.357803 529.084778,156.402100 
	C529.677856,151.992920 534.087891,148.425949 538.608093,148.423248 
	C543.569702,148.420288 547.747620,151.929123 548.262695,157.373383 
	C549.375183,169.132172 550.138550,180.924469 551.001282,192.706238 
	C552.435425,212.290237 553.648010,231.892578 555.304199,251.457550 
	C556.842896,269.635345 570.728271,279.086517 588.329468,274.385376 
	C601.500671,270.867493 614.701050,267.457520 627.857910,263.887024 
	C643.573669,259.622101 650.859253,244.184402 644.313110,229.326859 
	C626.900818,189.806870 609.669006,150.206314 592.044006,110.781517 
	C583.634827,91.971512 568.356201,82.103058 548.007996,81.739090 
	C515.355286,81.155014 482.684387,81.534676 450.021362,81.605377 
	C436.431854,81.634796 428.518860,87.470695 423.891266,100.416626 
	C418.689331,114.969193 413.253174,129.442520 408.339325,144.091339 
	C406.392822,149.893997 403.025726,152.831161 397.030609,153.622498 
	C374.258728,156.628265 351.512482,159.828659 328.758362,162.968567 
	C326.989227,163.212677 325.233185,163.551773 323.148193,163.900757 
	C327.042175,180.696045 330.476990,197.120377 334.708771,213.336761 
	C339.495728,231.680573 352.726990,240.880081 370.760803,242.975571 
	C400.021729,246.375626 429.369080,249.031723 458.678802,252.013184 
	C461.162048,252.265778 463.659424,252.479019 466.110565,252.927307 
	C471.328949,253.881668 474.508118,258.087067 474.104858,263.288422 
	C473.717590,268.283844 469.600555,272.197205 464.399902,272.129547 
	C460.758026,272.082184 457.122131,271.574860 453.178986,271.247650 
	C453.178986,279.909729 453.587372,288.530579 453.050690,297.092163 
	C452.615967,304.027313 451.280243,310.938385 449.910095,317.773102 
	C448.586182,324.376892 443.762695,327.770294 438.230316,326.616302 
	C432.312500,325.381927 429.352570,320.326355 430.895233,313.624451 
	C434.252350,299.040131 434.988190,284.377930 432.654877,269.132172 
	C411.652313,267.006165 390.669861,264.882202 369.331573,262.722229 
	C369.331573,276.160645 369.331573,289.396759 369.331573,302.995789 
	C374.727661,300.846130 379.086914,303.093201 383.299438,306.413635 
	C431.069489,344.067383 457.858063,393.034821 462.779144,453.771790 
	C463.437622,461.898834 458.537292,467.466675 451.921356,466.648285 
	C446.886566,466.025482 443.433594,462.199951 443.179779,456.726868 
	C441.141815,412.780487 423.351593,375.530548 394.689850,342.961884 
	C390.740570,338.474274 386.161163,334.540161 381.853241,330.370758 
	C381.405060,329.937012 380.818420,329.646332 379.907990,329.024048 
	C376.188141,344.177155 372.546082,359.023193 368.898621,373.867889 
	C366.729797,382.694733 364.869965,384.275543 355.690277,385.168671 
	C346.251129,386.087067 336.815704,387.043762 327.373901,387.933777 
	C320.229370,388.607269 315.232910,392.219299 312.615479,398.865967 
	C310.912018,403.191589 309.582275,407.662994 308.017944,412.045105 
	C304.760559,421.170044 299.742584,429.054535 291.899506,434.985107 
	C290.946472,435.705750 289.859985,436.889557 289.732574,437.964966 
	C288.184387,451.033295 297.832977,467.991608 310.068329,473.888580 
	C320.935272,479.126099 332.496216,480.027130 344.206818,478.515961 
	C349.658325,477.812500 353.606506,479.260132 356.875366,483.449036 
	C379.751984,512.764648 385.063690,544.696960 371.520050,579.601868 
	C370.065796,583.349670 369.236877,587.542847 369.105713,591.561707 
	C368.768768,601.882996 369.032684,612.222717 368.967255,622.554504 
	C368.928772,628.633179 366.309143,632.297058 360.659393,634.171082 
	C332.155609,643.625549 303.625946,653.001953 275.135040,662.494995 
	C269.656281,664.320496 264.447174,667.247681 258.854706,668.335754 
	C255.179657,669.050781 250.415237,668.461182 247.202240,666.609802 
	C202.207413,640.684082 157.420563,614.397766 112.510086,588.324951 
	C106.616539,584.903442 103.567451,580.572571 103.761627,573.468811 
	C104.125557,560.154846 103.866997,546.823914 103.867355,533.000000 
M83.590347,304.141663 
	C91.090523,299.877808 98.690521,295.776794 106.041786,291.270050 
	C108.986855,289.464539 110.327133,289.980408 111.807144,292.856628 
	C114.006607,297.131134 116.437897,301.298798 118.986504,305.376953 
	C120.764458,308.221985 120.597366,309.747986 117.339241,311.582825 
	C94.791245,324.280823 72.341301,337.155640 50.004955,350.221680 
	C48.161671,351.299957 46.332500,354.193695 46.292423,356.278442 
	C45.985001,372.270447 46.001068,388.273071 46.276730,404.266174 
	C46.310772,406.241272 47.984085,408.999146 49.709026,410.010040 
	C69.602753,421.669037 89.723701,432.940643 109.603157,444.623383 
	C113.644424,446.998352 116.401413,446.742859 120.197327,444.146210 
	C138.290848,431.769226 156.636719,419.761780 174.814774,407.507141 
	C177.406006,405.760223 178.870178,405.375092 180.635971,408.581390 
	C182.872330,412.642120 185.647583,416.429230 188.418732,420.165009 
	C190.687622,423.223663 190.509109,425.019073 187.037933,427.291779 
	C168.139923,439.664642 149.485184,452.409088 130.586472,464.780884 
	C127.766052,466.627258 126.938484,468.557922 126.945633,471.658752 
	C127.017899,502.987823 127.032402,534.317261 126.927246,565.646179 
	C126.916168,568.946045 128.142593,570.642822 130.967422,572.265015 
	C147.657135,581.849609 164.216492,591.661316 180.808945,601.414917 
	C195.314941,609.942017 195.246658,609.854004 209.765213,600.721130 
	C232.810638,586.224426 255.975967,571.918274 279.010223,557.403992 
	C281.702515,555.707581 283.150116,555.384705 284.777344,558.621643 
	C286.634735,562.316406 289.119263,565.694885 291.316650,569.219910 
	C294.910461,574.984985 294.868896,574.929382 289.030701,578.567993 
	C266.772827,592.439880 244.565338,606.393005 222.271286,620.206421 
	C219.058121,622.197266 218.251602,623.284668 222.192383,625.464172 
	C231.774597,630.763611 241.276917,636.230286 250.569427,642.018066 
	C253.719482,643.980042 256.495148,644.552917 259.899536,643.389709 
	C267.437653,640.814209 275.020691,638.370483 282.571960,635.832947 
	C302.236237,629.225037 321.839813,622.428345 341.599243,616.119080 
	C345.439911,614.892761 346.521454,613.279724 346.509918,609.537476 
	C346.404419,575.208923 346.455994,540.879944 346.436188,506.551086 
	C346.432068,499.382019 345.247894,498.642395 337.924286,498.697479 
	C318.946869,498.840240 301.147583,495.243347 287.011719,481.199554 
	C284.927338,479.128754 283.013489,476.886292 280.968445,474.666473 
	C279.957275,475.224884 279.230347,475.597534 278.531189,476.016510 
	C250.487061,492.822235 222.408524,509.571198 194.454865,526.526062 
	C191.313263,528.431519 189.957443,528.119995 188.376175,524.954102 
	C186.600922,521.399719 184.306030,518.106384 182.265091,514.682922 
	C178.749634,508.785950 178.776398,508.810059 184.563156,505.338867 
	C212.743423,488.434753 240.881622,471.459900 269.140625,454.688568 
	C271.717651,453.159088 272.110962,451.688202 271.605347,449.112976 
	C270.643951,444.216736 269.837646,439.286011 269.115326,434.347900 
	C268.164795,427.849487 269.714325,424.886536 275.655029,421.903320 
	C281.902893,418.765839 286.278717,413.941681 288.763824,407.476898 
	C290.672729,402.511017 292.243378,397.416199 294.064392,392.415131 
	C297.014801,384.312439 302.057556,377.760986 309.600525,373.572845 
	C312.572998,371.922455 313.394989,370.175842 313.178864,366.970795 
	C312.260895,353.358734 311.455444,339.736176 310.859375,326.106476 
	C310.516907,318.275635 315.631409,314.055939 323.383698,315.387695 
	C325.842224,315.810028 328.308197,316.300568 330.692780,317.018829 
	C335.827881,318.565552 340.912354,320.280334 346.440491,322.062714 
	C346.440491,300.555481 346.495758,279.577515 346.308929,258.601715 
	C346.297180,257.285828 344.663116,255.502045 343.326233,254.755936 
	C331.811890,248.329834 323.044830,239.192429 319.473846,226.573700 
	C312.962067,203.563080 307.389618,180.283081 301.663422,157.056747 
	C300.560242,152.581955 302.628967,148.702911 306.923157,146.820862 
	C309.442413,145.716705 312.369049,145.448090 315.147552,145.046234 
	C325.477539,143.552261 335.822083,142.158829 346.447723,140.687988 
	C346.447723,119.942131 346.505157,99.631638 346.313660,79.323494 
	C346.301361,78.021805 344.611694,76.004913 343.283813,75.554451 
	C315.785309,66.225983 288.253845,56.990917 260.634552,48.028103 
	C257.966583,47.162315 254.141464,47.222958 251.768982,48.523529 
	C238.530777,55.780582 225.638428,63.665527 212.479034,71.071396 
	C209.010376,73.023499 207.746292,75.247581 207.767395,79.271286 
	C207.941315,112.432716 207.870911,145.595459 207.859695,178.757797 
	C207.859161,180.337296 207.718460,181.916779 207.642166,183.514404 
	C199.778519,183.514404 192.517853,183.514404 184.556183,183.514404 
	C184.556183,151.687988 184.556183,120.163071 184.556183,88.125763 
	C182.870132,88.777641 181.909668,89.008026 181.093582,89.485306 
	C164.338486,99.284248 147.648575,109.196274 130.811325,118.851517 
	C127.916016,120.511810 126.925011,122.357132 126.934669,125.571846 
	C127.028343,156.734177 127.027138,187.896988 126.933662,219.059311 
	C126.924530,222.104843 127.875175,223.907547 130.574020,225.427567 
	C151.246735,237.070862 171.882965,248.781342 192.398514,260.698212 
	C195.034271,262.229248 196.631683,262.143616 199.035385,260.520874 
	C215.969147,249.088821 232.938660,237.706070 250.065277,226.566681 
	C253.169174,224.547897 254.133286,222.403702 254.110397,218.876831 
	C253.968750,197.047241 254.030396,175.216324 254.046448,153.385849 
	C254.047379,152.119888 254.240189,150.854065 254.347672,149.539902 
	C262.107788,149.539902 269.487671,149.539902 276.965057,149.539902 
	C277.056519,150.764420 277.170715,151.580917 277.170807,152.397415 
	C277.173553,177.060745 276.980347,201.726303 277.276123,226.386002 
	C277.359802,233.363785 274.782104,237.928787 269.088837,241.666885 
	C249.788910,254.338791 230.708450,267.344940 211.407379,280.015045 
	C208.816071,281.716064 207.777725,283.393463 207.807175,286.395874 
	C207.928085,298.726379 207.937531,311.059631 207.799881,323.389801 
	C207.765472,326.474304 208.940979,328.119751 211.576340,329.674622 
	C226.581299,338.527618 241.396454,347.702911 256.424530,356.515533 
	C259.484924,358.310181 259.468781,359.935394 257.885223,362.468781 
	C255.333282,366.551422 252.601547,370.548584 250.406677,374.818726 
	C248.752823,378.036255 247.414856,378.228241 244.333954,376.336151 
	C229.485916,367.217407 214.403519,358.480621 199.540802,349.385162 
	C196.950546,347.800018 195.342743,348.011078 192.863770,349.524292 
	C177.991165,358.602844 162.923813,367.362518 148.062454,376.459015 
	C145.180847,378.222870 143.902359,378.051666 142.330795,375.047119 
	C140.102631,370.787354 137.444183,366.745300 134.848495,362.687714 
	C133.100037,359.954498 133.098740,358.300598 136.366043,356.391083 
	C151.407700,347.600220 166.314590,338.573151 181.107895,329.370514 
	C182.839645,328.293274 184.555527,325.633392 184.605911,323.664398 
	C184.921204,311.340881 184.894821,299.002228 184.617584,286.676727 
	C184.575150,284.790222 183.120102,282.135956 181.521561,281.205048 
	C160.594116,269.017853 139.557373,257.015930 118.419250,245.197876 
	C116.837318,244.313446 113.857269,244.443375 112.228233,245.354828 
	C91.237900,257.098816 70.333748,268.999847 49.556812,281.116638 
	C47.856979,282.107971 46.333126,284.937805 46.277111,286.956360 
	C45.962894,298.279510 46.111881,309.615906 46.141582,320.947662 
	C46.144802,322.176086 46.397408,323.403809 46.616653,325.370148 
	C59.170574,318.141449 71.049110,311.301666 83.590347,304.141663 
M352.886383,357.126923 
	C352.721130,355.226624 353.217865,352.874268 352.280304,351.501434 
	C347.225800,344.100220 339.593018,340.544739 330.965637,337.582764 
	C331.633362,348.098663 332.251495,357.833923 332.878815,367.713287 
	C339.121277,367.097260 344.852600,366.531647 350.548401,365.969574 
	C351.320679,363.045807 351.994293,360.495575 352.886383,357.126923 
z"/>
<path fill="#FAFAFA" opacity="1.000000" stroke="none" 
	d="
M338.278931,429.978943 
	C331.650452,427.014099 328.380554,422.269958 328.922272,415.265472 
	C329.357300,409.641052 333.317261,404.827179 338.666504,403.185150 
	C344.366364,401.435516 350.629578,403.495392 354.203430,408.295044 
	C357.718658,413.015930 357.930389,419.199524 354.748260,424.205719 
	C351.359924,429.536346 345.622375,431.627441 338.278931,429.978943 
z"/>
<path fill="#FBFBFB" opacity="1.000000" stroke="none" 
	d="
M476.482330,131.463043 
	C481.604370,137.851440 482.311768,143.514679 478.935486,149.165970 
	C476.051117,153.993866 469.695526,156.916107 464.364685,155.725418 
	C458.484100,154.411942 454.482239,150.842148 453.169189,144.952271 
	C451.911774,139.312271 453.611145,134.308426 458.265625,130.737534 
	C463.064972,127.055542 468.340088,126.792023 473.724762,129.544998 
	C474.605774,129.995422 475.383240,130.648270 476.482330,131.463043 
z"/>
<path fill="#030303" opacity="1.000000" stroke="none" 
	d="
M83.258987,304.301758 
	C71.049110,311.301666 59.170574,318.141449 46.616653,325.370148 
	C46.397408,323.403809 46.144802,322.176086 46.141582,320.947662 
	C46.111881,309.615906 45.962894,298.279510 46.277111,286.956360 
	C46.333126,284.937805 47.856979,282.107971 49.556812,281.116638 
	C70.333748,268.999847 91.237900,257.098816 112.228233,245.354828 
	C113.857269,244.443375 116.837318,244.313446 118.419250,245.197876 
	C139.557373,257.015930 160.594116,269.017853 181.521561,281.205048 
	C183.120102,282.135956 184.575150,284.790222 184.617584,286.676727 
	C184.894821,299.002228 184.921204,311.340881 184.605911,323.664398 
	C184.555527,325.633392 182.839645,328.293274 181.107895,329.370514 
	C166.314590,338.573151 151.407700,347.600220 136.366043,356.391083 
	C133.098740,358.300598 133.100037,359.954498 134.848495,362.687714 
	C137.444183,366.745300 140.102631,370.787354 142.330795,375.047119 
	C143.902359,378.051666 145.180847,378.222870 148.062454,376.459015 
	C162.923813,367.362518 177.991165,358.602844 192.863770,349.524292 
	C195.342743,348.011078 196.950546,347.800018 199.540802,349.385162 
	C214.403519,358.480621 229.485916,367.217407 244.333954,376.336151 
	C247.414856,378.228241 248.752823,378.036255 250.406677,374.818726 
	C252.601547,370.548584 255.333282,366.551422 257.885223,362.468781 
	C259.468781,359.935394 259.484924,358.310181 256.424530,356.515533 
	C241.396454,347.702911 226.581299,338.527618 211.576340,329.674622 
	C208.940979,328.119751 207.765472,326.474304 207.799881,323.389801 
	C207.937531,311.059631 207.928085,298.726379 207.807175,286.395874 
	C207.777725,283.393463 208.816071,281.716064 211.407379,280.015045 
	C230.708450,267.344940 249.788910,254.338791 269.088837,241.666885 
	C274.782104,237.928787 277.359802,233.363785 277.276123,226.386002 
	C276.980347,201.726303 277.173553,177.060745 277.170807,152.397415 
	C277.170715,151.580917 277.056519,150.764420 276.965057,149.539902 
	C269.487671,149.539902 262.107788,149.539902 254.347672,149.539902 
	C254.240189,150.854065 254.047379,152.119888 254.046448,153.385849 
	C254.030396,175.216324 253.968750,197.047241 254.110397,218.876831 
	C254.133286,222.403702 253.169174,224.547897 250.065277,226.566681 
	C232.938660,237.706070 215.969147,249.088821 199.035385,260.520874 
	C196.631683,262.143616 195.034271,262.229248 192.398514,260.698212 
	C171.882965,248.781342 151.246735,237.070862 130.574020,225.427567 
	C127.875175,223.907547 126.924530,222.104843 126.933662,219.059311 
	C127.027138,187.896988 127.028343,156.734177 126.934669,125.571846 
	C126.925011,122.357132 127.916016,120.511810 130.811325,118.851517 
	C147.648575,109.196274 164.338486,99.284248 181.093582,89.485306 
	C181.909668,89.008026 182.870132,88.777641 184.556183,88.125763 
	C184.556183,120.163071 184.556183,151.687988 184.556183,183.514404 
	C192.517853,183.514404 199.778519,183.514404 207.642166,183.514404 
	C207.718460,181.916779 207.859161,180.337296 207.859695,178.757797 
	C207.870911,145.595459 207.941315,112.432716 207.767395,79.271286 
	C207.746292,75.247581 209.010376,73.023499 212.479034,71.071396 
	C225.638428,63.665527 238.530777,55.780582 251.768982,48.523529 
	C254.141464,47.222958 257.966583,47.162315 260.634552,48.028103 
	C288.253845,56.990917 315.785309,66.225983 343.283813,75.554451 
	C344.611694,76.004913 346.301361,78.021805 346.313660,79.323494 
	C346.505157,99.631638 346.447723,119.942131 346.447723,140.687988 
	C335.822083,142.158829 325.477539,143.552261 315.147552,145.046234 
	C312.369049,145.448090 309.442413,145.716705 306.923157,146.820862 
	C302.628967,148.702911 300.560242,152.581955 301.663422,157.056747 
	C307.389618,180.283081 312.962067,203.563080 319.473846,226.573700 
	C323.044830,239.192429 331.811890,248.329834 343.326233,254.755936 
	C344.663116,255.502045 346.297180,257.285828 346.308929,258.601715 
	C346.495758,279.577515 346.440491,300.555481 346.440491,322.062714 
	C340.912354,320.280334 335.827881,318.565552 330.692780,317.018829 
	C328.308197,316.300568 325.842224,315.810028 323.383698,315.387695 
	C315.631409,314.055939 310.516907,318.275635 310.859375,326.106476 
	C311.455444,339.736176 312.260895,353.358734 313.178864,366.970795 
	C313.394989,370.175842 312.572998,371.922455 309.600525,373.572845 
	C302.057556,377.760986 297.014801,384.312439 294.064392,392.415131 
	C292.243378,397.416199 290.672729,402.511017 288.763824,407.476898 
	C286.278717,413.941681 281.902893,418.765839 275.655029,421.903320 
	C269.714325,424.886536 268.164795,427.849487 269.115326,434.347900 
	C269.837646,439.286011 270.643951,444.216736 271.605347,449.112976 
	C272.110962,451.688202 271.717651,453.159088 269.140625,454.688568 
	C240.881622,471.459900 212.743423,488.434753 184.563156,505.338867 
	C178.776398,508.810059 178.749634,508.785950 182.265091,514.682922 
	C184.306030,518.106384 186.600922,521.399719 188.376175,524.954102 
	C189.957443,528.119995 191.313263,528.431519 194.454865,526.526062 
	C222.408524,509.571198 250.487061,492.822235 278.531189,476.016510 
	C279.230347,475.597534 279.957275,475.224884 280.968445,474.666473 
	C283.013489,476.886292 284.927338,479.128754 287.011719,481.199554 
	C301.147583,495.243347 318.946869,498.840240 337.924286,498.697479 
	C345.247894,498.642395 346.432068,499.382019 346.436188,506.551086 
	C346.455994,540.879944 346.404419,575.208923 346.509918,609.537476 
	C346.521454,613.279724 345.439911,614.892761 341.599243,616.119080 
	C321.839813,622.428345 302.236237,629.225037 282.571960,635.832947 
	C275.020691,638.370483 267.437653,640.814209 259.899536,643.389709 
	C256.495148,644.552917 253.719482,643.980042 250.569427,642.018066 
	C241.276917,636.230286 231.774597,630.763611 222.192383,625.464172 
	C218.251602,623.284668 219.058121,622.197266 222.271286,620.206421 
	C244.565338,606.393005 266.772827,592.439880 289.030701,578.567993 
	C294.868896,574.929382 294.910461,574.984985 291.316650,569.219910 
	C289.119263,565.694885 286.634735,562.316406 284.777344,558.621643 
	C283.150116,555.384705 281.702515,555.707581 279.010223,557.403992 
	C255.975967,571.918274 232.810638,586.224426 209.765213,600.721130 
	C195.246658,609.854004 195.314941,609.942017 180.808945,601.414917 
	C164.216492,591.661316 147.657135,581.849609 130.967422,572.265015 
	C128.142593,570.642822 126.916168,568.946045 126.927246,565.646179 
	C127.032402,534.317261 127.017899,502.987823 126.945633,471.658752 
	C126.938484,468.557922 127.766052,466.627258 130.586472,464.780884 
	C149.485184,452.409088 168.139923,439.664642 187.037933,427.291779 
	C190.509109,425.019073 190.687622,423.223663 188.418732,420.165009 
	C185.647583,416.429230 182.872330,412.642120 180.635971,408.581390 
	C178.870178,405.375092 177.406006,405.760223 174.814774,407.507141 
	C156.636719,419.761780 138.290848,431.769226 120.197327,444.146210 
	C116.401413,446.742859 113.644424,446.998352 109.603157,444.623383 
	C89.723701,432.940643 69.602753,421.669037 49.709026,410.010040 
	C47.984085,408.999146 46.310772,406.241272 46.276730,404.266174 
	C46.001068,388.273071 45.985001,372.270447 46.292423,356.278442 
	C46.332500,354.193695 48.161671,351.299957 50.004955,350.221680 
	C72.341301,337.155640 94.791245,324.280823 117.339241,311.582825 
	C120.597366,309.747986 120.764458,308.221985 118.986504,305.376953 
	C116.437897,301.298798 114.006607,297.131134 111.807144,292.856628 
	C110.327133,289.980408 108.986855,289.464539 106.041786,291.270050 
	C98.690521,295.776794 91.090523,299.877808 83.258987,304.301758 
z"/>
<path fill="#040404" opacity="1.000000" stroke="none" 
	d="
M352.777161,357.536133 
	C351.994293,360.495575 351.320679,363.045807 350.548401,365.969574 
	C344.852600,366.531647 339.121277,367.097260 332.878815,367.713287 
	C332.251495,357.833923 331.633362,348.098663 330.965637,337.582764 
	C339.593018,340.544739 347.225800,344.100220 352.280304,351.501434 
	C353.217865,352.874268 352.721130,355.226624 352.777161,357.536133 
z"/>
</svg>